<svg xmlns="http://www.w3.org/2000/svg" viewBox="0 0 24 24" width='1em' height='1em'><g fill="none"><g clip-path="url(#akarIconsTelegramFill0)"><path fill="currentColor" fill-rule="evenodd" d="M24 12c0 6.627-5.373 12-12 12S0 18.627 0 12S5.373 0 12 0s12 5.373 12 12M12.43 8.859q-1.75.728-6.998 3.014q-.852.339-.893.663c-.046.366.412.51 1.034.705l.263.084c.613.199 1.437.432 1.865.441q.583.012 1.302-.48q4.902-3.31 5.061-3.346c.075-.017.179-.039.249.024c.07.062.063.18.056.212c-.046.193-1.84 1.862-2.77 2.726c-.29.269-.495.46-.537.504q-.143.145-.282.279c-.57.548-.996.96.024 1.632c.49.323.882.59 1.273.856c.427.291.853.581 1.405.943q.21.14.405.28c.497.355.944.673 1.496.623c.32-.03.652-.331.82-1.23c.397-2.126 1.179-6.73 1.36-8.628a2 2 0 0 0-.02-.472a.5.5 0 0 0-.172-.325c-.143-.117-.365-.142-.465-.14c-.451.008-1.143.249-4.476 1.635" clip-rule="evenodd"/></g><defs><clipPath id="akarIconsTelegramFill0"><path fill="#fff" d="M0 0h24v24H0z"/></clipPath></defs></g></svg>